<?xml version="1.0" standalone="no"?>
<!DOCTYPE svg PUBLIC "-//W3C//DTD SVG 20010904//EN"
 "http://www.w3.org/TR/2001/REC-SVG-20010904/DTD/svg10.dtd">
<svg version="1.0" xmlns="http://www.w3.org/2000/svg"
 width="670.000000pt" height="670.000000pt" viewBox="0 0 670.000000 670.000000"
 preserveAspectRatio="xMidYMid meet">
<metadata>
Created by potrace 1.11, written by Peter Selinger 2001-2013
</metadata>
<g transform="translate(0.000000,670.000000) scale(0.100000,-0.100000)"
fill="#000000" stroke="none">
<path d="M3015 5921 c-16 -5 -55 -14 -85 -21 -30 -7 -62 -16 -70 -20 -8 -4
-37 -18 -65 -31 -85 -39 -137 -78 -225 -168 -120 -122 -190 -256 -248 -476 -6
-22 -16 -60 -22 -84 -13 -48 -8 -56 40 -67 14 -2 41 -9 61 -14 59 -16 79 -13
89 15 9 24 32 77 68 155 80 174 177 272 304 306 60 16 180 18 224 5 16 -5 49
-15 74 -22 94 -27 202 -121 243 -209 39 -87 47 -126 47 -244 0 -139 -11 -194
-73 -351 -77 -198 -221 -410 -431 -635 -28 -30 -107 -116 -176 -190 -69 -74
-152 -164 -186 -200 -33 -36 -85 -92 -115 -125 -31 -33 -81 -87 -112 -120 -58
-62 -71 -93 -65 -156 l3 -34 782 -3 782 -2 17 37 c9 21 19 47 24 58 4 11 12
32 19 48 6 15 15 37 20 50 4 12 13 34 20 50 22 54 30 75 87 220 56 143 57 148
38 162 -10 8 -26 15 -34 15 -9 0 -20 4 -25 9 -6 5 -24 12 -42 16 -31 6 -33 4
-84 -72 -28 -43 -66 -93 -83 -111 -64 -69 -47 -67 -508 -70 -316 -2 -418 0
-418 9 0 14 29 48 204 234 78 82 173 184 211 225 39 41 77 81 85 90 9 8 45 49
80 90 36 41 67 77 70 80 5 5 38 50 127 171 76 104 161 278 191 394 6 22 15 59
21 81 6 23 11 98 11 168 0 181 -40 318 -126 433 -123 164 -267 255 -474 299
-69 15 -225 17 -275 5z"/>
<path d="M2605 2996 c-42 -13 -76 -26 -135 -53 -52 -25 -181 -160 -212 -223
-26 -53 -35 -80 -57 -166 -28 -108 -1 -325 59 -469 5 -11 17 -40 27 -64 74
-180 245 -463 437 -721 69 -93 338 -433 363 -458 6 -7 33 -39 59 -72 26 -33
54 -60 63 -59 9 0 44 35 77 77 34 42 111 138 171 212 125 155 254 322 303 395
18 28 36 52 40 55 13 12 156 237 212 335 32 58 89 172 121 245 29 65 68 194
84 274 60 315 -116 614 -409 692 -131 35 -258 7 -399 -87 -53 -35 -143 -126
-176 -176 -20 -31 -35 -29 -56 7 -10 16 -49 60 -87 98 -73 72 -168 130 -257
157 -56 17 -171 17 -228 1z"/>
</g>
</svg>
